<svg width="15" height="13" viewBox="0 0 15 13" fill="none" xmlns="http://www.w3.org/2000/svg">
    <path d="M1.13989 5.39772C5.10965 3.67372 7.75615 2.53194 9.0794 1.97239C12.8563 0.395834 13.6503 0.123623 14.1607 0.112281C14.3506 0.108098 14.5371 0.163639 14.6938 0.271071C14.8011 0.368447 14.8696 0.501403 14.8866 0.645362C14.9184 0.821191 14.926 1.00055 14.9093 1.17844C14.7051 3.33345 13.8204 8.56219 13.3667 10.9667C13.1739 11.9875 12.7996 12.3278 12.4367 12.3618C11.6427 12.4299 11.0416 11.8401 10.2817 11.341C9.0794 10.5584 8.41021 10.0707 7.24197 9.29943C5.89226 8.41474 6.7656 7.92703 7.53687 7.13307C7.74103 6.92892 11.2231 3.75311 11.2911 3.46956C11.2996 3.42731 11.2979 3.38364 11.286 3.3422C11.2742 3.30076 11.2526 3.26276 11.2231 3.23137C11.181 3.20538 11.1333 3.18977 11.084 3.18582C11.0347 3.18188 10.9852 3.18972 10.9395 3.20869C10.8148 3.23137 8.90927 4.50169 5.20038 7.00831C4.65596 7.3826 4.16825 7.56408 3.7259 7.55273C3.23819 7.54139 2.30813 7.28052 1.60492 7.05368C0.754259 6.78147 0.0737302 6.63402 0.130441 6.15765C0.164467 5.90812 0.504732 5.65859 1.13989 5.39772Z" fill="white"/>
</svg>
